{"title":"Casino Royale 720P.avi","uid":5901773,"size":1959870252,"categoryP":"video","categoryS":"hd___movies","magnet":"?xt=urn:btih:3163efff31e3d87fdbf254590a27ba47dc773332&amp;dn=Casino+Royale+720P.avi&amp;tr=udp%3A%2F%2Ftracker.openbittorrent.com%3A80&amp;tr=udp%3A%2F%2Fopen.demonii.com%3A1337&amp;tr=udp%3A%2F%2Ftracker.coppersurfer.tk%3A6969&amp;tr=udp%3A%2F%2Fexodus.desync.com%3A6969","seeders":0,"leechers":0,"uploader":"No1VIPER","files":-1,"time":1287700360,"description":"I thought I would upload this as there aren\\'t any 720P versions around this size. This won\\'t be for everyone, but hopefully some people will appreciate it.\n\n\n\nDetailed Analysis of:   Casino Royale 720P.avi\n\nGeneral  Complete name : G:\\Downloads\\Casino Royale 720P.avi \nFormat : AVI \nFormat/Info : Audio Video Interleave \nFormat profile : OpenDML \nFile size : 1.83 GiB \nDuration : 2h 24mn \nOverall bit rate : 1 810 Kbps \nDirector : created.with.SUPER(C).v2010.bld.38 \nWriting application : SUPER(C) - by eRightSoft \n\nVideo  ID : 0 \nFormat : MPEG-4 Visual \nFormat profile : Advanced Simple@L5 \nFormat settings, BVOP : Yes \nFormat settings, QPel : No \nFormat settings, GMC : No warppoints \nFormat settings, Matrix : Default (MPEG) \nCodec ID : XVID \nCodec ID/Hint : XviD \nDuration : 2h 24mn \nBit rate : 1 478 Kbps \nWidth : 720 pixels \nHeight : 306 pixels \nDisplay aspect ratio : 2.35:1 \nFrame rate : 23.976 fps \nResolution : 8 bits \nColorimetry : 4:2:0 \nScan type : Progressive \nBits/(Pixel*Frame) : 0.280 \nStream size : 1.49 GiB (82%) \nWriting library : XviD 1.1.2 (UTC 2006-11-01) \n\nAudio  ID : 1 \nFormat : MPEG Audio \nFormat version : Version 1 \nFormat profile : Layer 3 \nCodec ID : 55 \nCodec ID/Hint : MP3 \nDuration : 2h 24mn \nBit rate mode : Constant \nBit rate : 320 Kbps \nChannel(s) : 2 channels \nSampling rate : 48.0 KHz \nVideo delay : 42ms \nStream size : 330 MiB (18%) \nAlignment : Aligned on interleaves \nInterleave, duration : 24 ms (0.58 video frame) \nInterleave, preload duration : 504 ms \nWriting library : LAME3.97 \n","torrent":{"xt":"urn:btih:3163efff31e3d87fdbf254590a27ba47dc773332","amp;dn":"Casino+Royale+720P.avi","amp;tr":["udp%3A%2F%2Ftracker.openbittorrent.com%3A80","udp%3A%2F%2Fopen.demonii.com%3A1337","udp%3A%2F%2Ftracker.coppersurfer.tk%3A6969","udp%3A%2F%2Fexodus.desync.com%3A6969"],"infoHash":"3163efff31e3d87fdbf254590a27ba47dc773332","infoHashBuffer":{"type":"Buffer","data":[49,99,239,255,49,227,216,127,219,242,84,89,10,39,186,71,220,119,51,50]},"announce":[],"urlList":[]}}